<mxfile host="app.diagrams.net" modified="2021-11-08T06:05:24.526Z" agent="5.0 (Windows NT 10.0; WOW64) AppleWebKit/537.36 (KHTML, like Gecko) Chrome/95.0.4638.69 Safari/537.36" etag="9D0VfJHpJKS4cN62mwHx" version="15.1.1" type="github">
  <diagram id="8Gsop-xYqd1bkP2zwNOv" name="普通支付">
    <mxGraphModel dx="782" dy="436" grid="1" gridSize="10" guides="1" tooltips="1" connect="1" arrows="1" fold="1" page="1" pageScale="1" pageWidth="827" pageHeight="1169" math="0" shadow="0">
      <root>
        <mxCell id="0" />
        <mxCell id="1" parent="0" />
        <mxCell id="_x4v-VnwTyk6EA4UEIuB-1" value="金融交换" style="shape=umlLifeline;perimeter=lifelinePerimeter;whiteSpace=wrap;html=1;container=1;collapsible=0;recursiveResize=0;outlineConnect=0;rounded=1;shadow=0;glass=0;comic=0;sketch=0;strokeWidth=1;fontFamily=Verdana;fillColor=#a20025;strokeColor=#6F0000;fontColor=#ffffff;" vertex="1" parent="1">
          <mxGeometry x="330" y="40" width="100" height="1580" as="geometry" />
        </mxCell>
        <mxCell id="_x4v-VnwTyk6EA4UEIuB-2" value="" style="html=1;points=[];perimeter=orthogonalPerimeter;strokeWidth=1;fillColor=#FFFFFF;" vertex="1" parent="_x4v-VnwTyk6EA4UEIuB-1">
          <mxGeometry x="45" y="100" width="10" height="100" as="geometry" />
        </mxCell>
        <mxCell id="_x4v-VnwTyk6EA4UEIuB-3" value="" style="html=1;points=[];perimeter=orthogonalPerimeter;strokeWidth=1;fillColor=#FFFFFF;align=left;" vertex="1" parent="_x4v-VnwTyk6EA4UEIuB-1">
          <mxGeometry x="45" y="230" width="10" height="80" as="geometry" />
        </mxCell>
        <mxCell id="_x4v-VnwTyk6EA4UEIuB-4" value="新增支付提交单（tb_funding_channel_commit_order）&lt;br&gt;，请求类型为入款" style="edgeStyle=orthogonalEdgeStyle;rounded=0;orthogonalLoop=1;jettySize=auto;html=1;entryX=0.967;entryY=0.067;entryDx=0;entryDy=0;entryPerimeter=0;align=left;" edge="1" parent="_x4v-VnwTyk6EA4UEIuB-1" source="_x4v-VnwTyk6EA4UEIuB-5" target="_x4v-VnwTyk6EA4UEIuB-7">
          <mxGeometry relative="1" as="geometry">
            <Array as="points">
              <mxPoint x="75" y="411" />
              <mxPoint x="75" y="448" />
            </Array>
          </mxGeometry>
        </mxCell>
        <mxCell id="_x4v-VnwTyk6EA4UEIuB-5" value="" style="html=1;points=[];perimeter=orthogonalPerimeter;strokeWidth=1;fillColor=#FFFFFF;align=left;" vertex="1" parent="_x4v-VnwTyk6EA4UEIuB-1">
          <mxGeometry x="45" y="371" width="10" height="40" as="geometry" />
        </mxCell>
        <mxCell id="_x4v-VnwTyk6EA4UEIuB-6" value="&lt;span style=&quot;font-family: &amp;#34;helvetica&amp;#34;&quot;&gt;渠道&lt;/span&gt;&lt;span style=&quot;font-family: &amp;#34;helvetica&amp;#34;&quot;&gt;&lt;b&gt;筛选&amp;amp;路由&lt;/b&gt;&lt;br&gt;1. 根据支付方式属性、支付交易信息、用户采集要素&lt;br&gt;进行支付渠道筛选（具体流程筛选流程请看&quot;渠道筛选&amp;amp;路由&quot;）&lt;br&gt;2.&amp;nbsp;若无可用支付渠道，则支付失败&lt;/span&gt;" style="edgeStyle=orthogonalEdgeStyle;html=1;align=left;spacingLeft=2;endArrow=block;rounded=0;exitX=1;exitY=0.956;exitDx=0;exitDy=0;exitPerimeter=0;entryX=1;entryY=0.475;entryDx=0;entryDy=0;entryPerimeter=0;" edge="1" parent="_x4v-VnwTyk6EA4UEIuB-1" source="_x4v-VnwTyk6EA4UEIuB-3" target="_x4v-VnwTyk6EA4UEIuB-5">
          <mxGeometry relative="1" as="geometry">
            <mxPoint x="55" y="380" as="sourcePoint" />
            <Array as="points">
              <mxPoint x="55" y="310" />
              <mxPoint x="80" y="310" />
              <mxPoint x="80" y="390" />
            </Array>
            <mxPoint x="110" y="405" as="targetPoint" />
          </mxGeometry>
        </mxCell>
        <mxCell id="_x4v-VnwTyk6EA4UEIuB-7" value="" style="html=1;points=[];perimeter=orthogonalPerimeter;strokeWidth=1;fillColor=#FFFFFF;align=left;" vertex="1" parent="_x4v-VnwTyk6EA4UEIuB-1">
          <mxGeometry x="45" y="440" width="10" height="120" as="geometry" />
        </mxCell>
        <mxCell id="_x4v-VnwTyk6EA4UEIuB-8" value="" style="html=1;points=[];perimeter=orthogonalPerimeter;" vertex="1" parent="_x4v-VnwTyk6EA4UEIuB-1">
          <mxGeometry x="45" y="630" width="10" height="40" as="geometry" />
        </mxCell>
        <mxCell id="_x4v-VnwTyk6EA4UEIuB-9" value="&lt;div&gt;&lt;/div&gt;1. 根据支付结果（终态）新增支付结果单&lt;br&gt;2. 根据支付结果更新支付提交单&lt;div&gt;3. 根据支付结果更新支付请求单&lt;/div&gt;&lt;div&gt;4. 根据支付结果（提交单或请求单非终态）新增订单补偿单&lt;/div&gt;" style="edgeStyle=orthogonalEdgeStyle;html=1;align=left;spacingLeft=2;endArrow=block;rounded=0;entryX=1;entryY=0;" edge="1" parent="_x4v-VnwTyk6EA4UEIuB-1" target="_x4v-VnwTyk6EA4UEIuB-8">
          <mxGeometry relative="1" as="geometry">
            <mxPoint x="55" y="560" as="sourcePoint" />
            <Array as="points">
              <mxPoint x="58" y="560" />
              <mxPoint x="80" y="560" />
              <mxPoint x="80" y="600" />
            </Array>
          </mxGeometry>
        </mxCell>
        <mxCell id="_x4v-VnwTyk6EA4UEIuB-10" value="" style="html=1;points=[];perimeter=orthogonalPerimeter;" vertex="1" parent="_x4v-VnwTyk6EA4UEIuB-1">
          <mxGeometry x="45" y="720" width="10" height="58" as="geometry" />
        </mxCell>
        <mxCell id="_x4v-VnwTyk6EA4UEIuB-11" value="" style="html=1;points=[];perimeter=orthogonalPerimeter;" vertex="1" parent="_x4v-VnwTyk6EA4UEIuB-1">
          <mxGeometry x="45" y="820" width="10" height="40" as="geometry" />
        </mxCell>
        <mxCell id="_x4v-VnwTyk6EA4UEIuB-12" value="根据提交单号或三方单号查询支付请求单&lt;br&gt;1.若请求单不存在，忽略此次callback&lt;br&gt;2.状态为pending，更新有效信息，不包括状态&lt;br&gt;3.状态到终态，更新有效信息，包括状态" style="edgeStyle=orthogonalEdgeStyle;html=1;align=left;spacingLeft=2;endArrow=block;rounded=0;entryX=1;entryY=0;" edge="1" parent="_x4v-VnwTyk6EA4UEIuB-1" target="_x4v-VnwTyk6EA4UEIuB-11">
          <mxGeometry relative="1" as="geometry">
            <mxPoint x="55" y="777" as="sourcePoint" />
            <Array as="points">
              <mxPoint x="57" y="777" />
              <mxPoint x="80" y="777" />
              <mxPoint x="80" y="805" />
            </Array>
          </mxGeometry>
        </mxCell>
        <mxCell id="_x4v-VnwTyk6EA4UEIuB-13" value="补偿查询定时器" style="shape=umlActor;verticalLabelPosition=bottom;verticalAlign=top;html=1;strokeWidth=1;fillColor=#f8cecc;strokeColor=#b85450;" vertex="1" parent="_x4v-VnwTyk6EA4UEIuB-1">
          <mxGeometry x="35" y="990" width="30" height="60" as="geometry" />
        </mxCell>
        <mxCell id="_x4v-VnwTyk6EA4UEIuB-14" value="" style="html=1;points=[];perimeter=orthogonalPerimeter;strokeWidth=1;" vertex="1" parent="_x4v-VnwTyk6EA4UEIuB-1">
          <mxGeometry x="45" y="1208" width="10" height="42" as="geometry" />
        </mxCell>
        <mxCell id="_x4v-VnwTyk6EA4UEIuB-15" value="" style="html=1;points=[];perimeter=orthogonalPerimeter;strokeWidth=1;" vertex="1" parent="_x4v-VnwTyk6EA4UEIuB-1">
          <mxGeometry x="45" y="1486" width="10" height="80" as="geometry" />
        </mxCell>
        <mxCell id="_x4v-VnwTyk6EA4UEIuB-61" value="" style="html=1;points=[];perimeter=orthogonalPerimeter;" vertex="1" parent="_x4v-VnwTyk6EA4UEIuB-1">
          <mxGeometry x="45" y="1100" width="10" height="40" as="geometry" />
        </mxCell>
        <mxCell id="_x4v-VnwTyk6EA4UEIuB-62" value="根据条件（时间、订单类型、状态等）查询&lt;br&gt;订单补偿单表（tb_funding_channel_order_compensate）" style="edgeStyle=orthogonalEdgeStyle;html=1;align=left;spacingLeft=2;endArrow=block;rounded=0;entryX=1;entryY=0;exitX=0.5;exitY=0.5;exitDx=0;exitDy=0;exitPerimeter=0;" edge="1" target="_x4v-VnwTyk6EA4UEIuB-61" parent="_x4v-VnwTyk6EA4UEIuB-1" source="_x4v-VnwTyk6EA4UEIuB-13">
          <mxGeometry relative="1" as="geometry">
            <mxPoint x="45" y="1080" as="sourcePoint" />
            <Array as="points">
              <mxPoint x="120" y="1020" />
              <mxPoint x="120" y="1100" />
            </Array>
          </mxGeometry>
        </mxCell>
        <mxCell id="_x4v-VnwTyk6EA4UEIuB-63" value="" style="html=1;points=[];perimeter=orthogonalPerimeter;" vertex="1" parent="_x4v-VnwTyk6EA4UEIuB-1">
          <mxGeometry x="45" y="1149" width="10" height="40" as="geometry" />
        </mxCell>
        <mxCell id="_x4v-VnwTyk6EA4UEIuB-64" value="若提交单状态为终态，则根据提交单状态更新请求单状态" style="edgeStyle=orthogonalEdgeStyle;html=1;align=left;spacingLeft=2;endArrow=block;rounded=0;entryX=1;entryY=0;" edge="1" target="_x4v-VnwTyk6EA4UEIuB-63" parent="_x4v-VnwTyk6EA4UEIuB-1" source="_x4v-VnwTyk6EA4UEIuB-61">
          <mxGeometry relative="1" as="geometry">
            <mxPoint x="45" y="1129" as="sourcePoint" />
            <Array as="points">
              <mxPoint x="90" y="1120" />
              <mxPoint x="90" y="1149" />
            </Array>
          </mxGeometry>
        </mxCell>
        <mxCell id="_x4v-VnwTyk6EA4UEIuB-16" value="渠道网关" style="shape=umlLifeline;perimeter=lifelinePerimeter;whiteSpace=wrap;html=1;container=1;collapsible=0;recursiveResize=0;outlineConnect=0;rounded=1;shadow=0;glass=0;comic=0;sketch=0;strokeWidth=1;fontFamily=Verdana;fillColor=#e3c800;fontColor=#ffffff;strokeColor=#BFA34D;" vertex="1" parent="1">
          <mxGeometry x="694" y="40" width="102" height="1580" as="geometry" />
        </mxCell>
        <mxCell id="_x4v-VnwTyk6EA4UEIuB-17" value="" style="html=1;points=[];perimeter=orthogonalPerimeter;strokeWidth=1;fillColor=#FFFFFF;align=left;" vertex="1" parent="_x4v-VnwTyk6EA4UEIuB-16">
          <mxGeometry x="46" y="450" width="10" height="40" as="geometry" />
        </mxCell>
        <mxCell id="_x4v-VnwTyk6EA4UEIuB-18" value="" style="html=1;points=[];perimeter=orthogonalPerimeter;strokeWidth=1;" vertex="1" parent="_x4v-VnwTyk6EA4UEIuB-16">
          <mxGeometry x="46" y="700" width="10" height="240" as="geometry" />
        </mxCell>
        <mxCell id="_x4v-VnwTyk6EA4UEIuB-19" value="" style="html=1;points=[];perimeter=orthogonalPerimeter;strokeWidth=1;" vertex="1" parent="_x4v-VnwTyk6EA4UEIuB-16">
          <mxGeometry x="46" y="1160" width="10" height="60" as="geometry" />
        </mxCell>
        <mxCell id="_x4v-VnwTyk6EA4UEIuB-20" value="" style="html=1;points=[];perimeter=orthogonalPerimeter;strokeWidth=1;" vertex="1" parent="_x4v-VnwTyk6EA4UEIuB-16">
          <mxGeometry x="46" y="506" width="10" height="54" as="geometry" />
        </mxCell>
        <mxCell id="_x4v-VnwTyk6EA4UEIuB-21" value="1. 渠道参数校验，若不通过，则返回支付失败" style="edgeStyle=orthogonalEdgeStyle;html=1;align=left;spacingLeft=2;endArrow=block;rounded=0;entryX=1;entryY=0;" edge="1" parent="_x4v-VnwTyk6EA4UEIuB-16" target="_x4v-VnwTyk6EA4UEIuB-20">
          <mxGeometry relative="1" as="geometry">
            <mxPoint x="56" y="486" as="sourcePoint" />
            <Array as="points">
              <mxPoint x="56" y="470" />
              <mxPoint x="76" y="470" />
              <mxPoint x="76" y="506" />
            </Array>
          </mxGeometry>
        </mxCell>
        <mxCell id="_x4v-VnwTyk6EA4UEIuB-22" value="外部集成机构" style="shape=umlLifeline;perimeter=lifelinePerimeter;whiteSpace=wrap;html=1;container=1;collapsible=0;recursiveResize=0;outlineConnect=0;rounded=1;shadow=0;glass=0;comic=0;sketch=0;strokeWidth=1;fontFamily=Verdana;gradientColor=#d5739d;fillColor=#e6d0de;strokeColor=#996185;" vertex="1" parent="1">
          <mxGeometry x="963" y="40" width="102" height="1580" as="geometry" />
        </mxCell>
        <mxCell id="_x4v-VnwTyk6EA4UEIuB-23" value="" style="html=1;points=[];perimeter=orthogonalPerimeter;strokeWidth=1;fillColor=#FFFFFF;align=left;" vertex="1" parent="_x4v-VnwTyk6EA4UEIuB-22">
          <mxGeometry x="46" y="522" width="10" height="50" as="geometry" />
        </mxCell>
        <mxCell id="_x4v-VnwTyk6EA4UEIuB-24" value="" style="shape=umlActor;verticalLabelPosition=bottom;verticalAlign=top;html=1;strokeWidth=1;fillColor=#f8cecc;strokeColor=#b85450;" vertex="1" parent="_x4v-VnwTyk6EA4UEIuB-22">
          <mxGeometry x="36" y="690" width="30" height="60" as="geometry" />
        </mxCell>
        <mxCell id="_x4v-VnwTyk6EA4UEIuB-25" value="" style="html=1;points=[];perimeter=orthogonalPerimeter;strokeWidth=1;" vertex="1" parent="_x4v-VnwTyk6EA4UEIuB-22">
          <mxGeometry x="46" y="1186" width="10" height="30" as="geometry" />
        </mxCell>
        <mxCell id="_x4v-VnwTyk6EA4UEIuB-26" value="发起支付请求（支付下单接口）" style="html=1;verticalAlign=bottom;endArrow=block;entryX=0;entryY=0;" edge="1" parent="1" source="_x4v-VnwTyk6EA4UEIuB-40" target="_x4v-VnwTyk6EA4UEIuB-2">
          <mxGeometry relative="1" as="geometry">
            <mxPoint x="69.5" y="140.0000000000025" as="sourcePoint" />
          </mxGeometry>
        </mxCell>
        <mxCell id="_x4v-VnwTyk6EA4UEIuB-27" value="校验不通过，返回支付失败" style="html=1;verticalAlign=bottom;endArrow=open;dashed=1;endSize=8;exitX=0;exitY=0.95;" edge="1" parent="1" source="_x4v-VnwTyk6EA4UEIuB-2" target="_x4v-VnwTyk6EA4UEIuB-40">
          <mxGeometry relative="1" as="geometry">
            <mxPoint x="69.5" y="814.4999999999984" as="targetPoint" />
          </mxGeometry>
        </mxCell>
        <mxCell id="_x4v-VnwTyk6EA4UEIuB-28" value="前置校验&#xa;1.必填参数校验（交易单号、商户ID、金额、支付方式信息等）&#xa;" style="text;align=left;fontStyle=0;verticalAlign=middle;spacingLeft=3;spacingRight=3;strokeColor=none;rotatable=0;points=[[0,0.5],[1,0.5]];portConstraint=eastwest;" vertex="1" parent="1">
          <mxGeometry x="383" y="160" width="220" height="40" as="geometry" />
        </mxCell>
        <mxCell id="_x4v-VnwTyk6EA4UEIuB-29" value="根据支付渠道，发起支付申请（渠道统一调用接口）" style="html=1;verticalAlign=bottom;endArrow=block;entryX=0;entryY=0;exitX=1.2;exitY=0.09;exitDx=0;exitDy=0;exitPerimeter=0;" edge="1" parent="1">
          <mxGeometry relative="1" as="geometry">
            <mxPoint x="387" y="518.8" as="sourcePoint" />
            <mxPoint x="740" y="518" as="targetPoint" />
          </mxGeometry>
        </mxCell>
        <mxCell id="_x4v-VnwTyk6EA4UEIuB-30" value="返回支付结果" style="html=1;verticalAlign=bottom;endArrow=open;dashed=1;endSize=8;entryX=1.1;entryY=0.894;entryDx=0;entryDy=0;entryPerimeter=0;" edge="1" parent="1" target="_x4v-VnwTyk6EA4UEIuB-7">
          <mxGeometry relative="1" as="geometry">
            <mxPoint x="387" y="566" as="targetPoint" />
            <mxPoint x="737" y="587" as="sourcePoint" />
          </mxGeometry>
        </mxCell>
        <mxCell id="_x4v-VnwTyk6EA4UEIuB-32" value="若支付状态为失败，返回数据" style="html=1;verticalAlign=bottom;endArrow=open;dashed=1;endSize=8;exitX=0.1;exitY=0.725;exitDx=0;exitDy=0;exitPerimeter=0;" edge="1" parent="1" source="_x4v-VnwTyk6EA4UEIuB-5" target="_x4v-VnwTyk6EA4UEIuB-40">
          <mxGeometry relative="1" as="geometry">
            <mxPoint x="370" y="440" as="sourcePoint" />
            <mxPoint x="290" y="440" as="targetPoint" />
          </mxGeometry>
        </mxCell>
        <mxCell id="_x4v-VnwTyk6EA4UEIuB-33" value="支付接口" style="html=1;verticalAlign=bottom;endArrow=block;entryX=0;entryY=0;exitX=0.933;exitY=0.296;exitDx=0;exitDy=0;exitPerimeter=0;" edge="1" parent="1" source="_x4v-VnwTyk6EA4UEIuB-20" target="_x4v-VnwTyk6EA4UEIuB-23">
          <mxGeometry relative="1" as="geometry">
            <mxPoint x="939" y="480" as="sourcePoint" />
          </mxGeometry>
        </mxCell>
        <mxCell id="_x4v-VnwTyk6EA4UEIuB-34" value="返回支付结果" style="html=1;verticalAlign=bottom;endArrow=open;dashed=1;endSize=8;exitX=0.167;exitY=0.653;entryX=1.067;entryY=0.883;entryDx=0;entryDy=0;entryPerimeter=0;exitDx=0;exitDy=0;exitPerimeter=0;" edge="1" parent="1">
          <mxGeometry relative="1" as="geometry">
            <mxPoint x="750.6700000000001" y="586.682" as="targetPoint" />
            <mxPoint x="1010.6700000000001" y="587.65" as="sourcePoint" />
          </mxGeometry>
        </mxCell>
        <mxCell id="_x4v-VnwTyk6EA4UEIuB-35" value="返回支付结果" style="html=1;verticalAlign=bottom;endArrow=open;dashed=1;endSize=8;exitX=-0.2;exitY=0.7;exitDx=0;exitDy=0;exitPerimeter=0;" edge="1" parent="1" source="_x4v-VnwTyk6EA4UEIuB-8" target="_x4v-VnwTyk6EA4UEIuB-40">
          <mxGeometry relative="1" as="geometry">
            <mxPoint x="370" y="670" as="sourcePoint" />
            <mxPoint x="290" y="670" as="targetPoint" />
          </mxGeometry>
        </mxCell>
        <mxCell id="_x4v-VnwTyk6EA4UEIuB-36" value="回调通知（callback回调接口）" style="html=1;verticalAlign=bottom;endArrow=open;entryX=0.9;entryY=0.65;entryDx=0;entryDy=0;entryPerimeter=0;exitX=0.1;exitY=0.121;exitDx=0;exitDy=0;exitPerimeter=0;" edge="1" parent="1" source="_x4v-VnwTyk6EA4UEIuB-18">
          <mxGeometry relative="1" as="geometry">
            <mxPoint x="737" y="770" as="sourcePoint" />
            <mxPoint x="383" y="770" as="targetPoint" />
          </mxGeometry>
        </mxCell>
        <mxCell id="_x4v-VnwTyk6EA4UEIuB-37" value="支付结果回调通知" style="html=1;verticalAlign=bottom;endArrow=open;endSize=8;exitX=-0.1;exitY=0.8;exitDx=0;exitDy=0;exitPerimeter=0;" edge="1" parent="1">
          <mxGeometry relative="1" as="geometry">
            <mxPoint x="374" y="948" as="sourcePoint" />
            <mxPoint x="78.5" y="948" as="targetPoint" />
          </mxGeometry>
        </mxCell>
        <mxCell id="_x4v-VnwTyk6EA4UEIuB-38" value="" style="html=1;points=[];perimeter=orthogonalPerimeter;" vertex="1" parent="1">
          <mxGeometry x="375" y="930" width="10" height="50" as="geometry" />
        </mxCell>
        <mxCell id="_x4v-VnwTyk6EA4UEIuB-39" value="1.新增支付结果单&lt;br&gt;2.更新支付提交单和支付请求单（事务）&lt;br&gt;3.根据支付结果（非终态）更新订单补偿单状态为无需补偿" style="edgeStyle=orthogonalEdgeStyle;html=1;align=left;spacingLeft=2;endArrow=block;rounded=0;entryX=1;entryY=0;exitX=1;exitY=0.875;exitDx=0;exitDy=0;exitPerimeter=0;" edge="1" parent="1" source="_x4v-VnwTyk6EA4UEIuB-11" target="_x4v-VnwTyk6EA4UEIuB-38">
          <mxGeometry relative="1" as="geometry">
            <mxPoint x="380" y="890" as="sourcePoint" />
            <Array as="points">
              <mxPoint x="410" y="895" />
              <mxPoint x="410" y="930" />
            </Array>
          </mxGeometry>
        </mxCell>
        <mxCell id="_x4v-VnwTyk6EA4UEIuB-40" value="支付引擎" style="shape=umlLifeline;perimeter=lifelinePerimeter;whiteSpace=wrap;html=1;container=1;collapsible=0;recursiveResize=0;outlineConnect=0;rounded=1;shadow=0;glass=0;comic=0;sketch=0;strokeWidth=1;fontFamily=Verdana;fillColor=#b0e3e6;strokeColor=#0e8088;" vertex="1" parent="1">
          <mxGeometry x="29" y="40" width="100" height="1580" as="geometry" />
        </mxCell>
        <mxCell id="_x4v-VnwTyk6EA4UEIuB-41" value="" style="shape=umlActor;verticalLabelPosition=bottom;verticalAlign=top;html=1;strokeWidth=1;fillColor=#f8cecc;strokeColor=#b85450;" vertex="1" parent="_x4v-VnwTyk6EA4UEIuB-40">
          <mxGeometry x="35" y="70" width="30" height="60" as="geometry" />
        </mxCell>
        <mxCell id="_x4v-VnwTyk6EA4UEIuB-42" value="callback（渠道callback接口）" style="html=1;verticalAlign=bottom;endArrow=block;" edge="1" parent="1" source="_x4v-VnwTyk6EA4UEIuB-22">
          <mxGeometry relative="1" as="geometry">
            <mxPoint x="810" y="830" as="sourcePoint" />
            <mxPoint x="751" y="760" as="targetPoint" />
            <Array as="points">
              <mxPoint x="840" y="760" />
            </Array>
          </mxGeometry>
        </mxCell>
        <mxCell id="_x4v-VnwTyk6EA4UEIuB-43" value="返回callback结果" style="html=1;verticalAlign=bottom;endArrow=open;dashed=1;endSize=8;" edge="1" parent="1" source="_x4v-VnwTyk6EA4UEIuB-18" target="_x4v-VnwTyk6EA4UEIuB-22">
          <mxGeometry relative="1" as="geometry">
            <mxPoint x="810" y="887" as="targetPoint" />
            <Array as="points">
              <mxPoint x="870" y="980" />
            </Array>
          </mxGeometry>
        </mxCell>
        <mxCell id="_x4v-VnwTyk6EA4UEIuB-44" value="返回回调结果" style="html=1;verticalAlign=bottom;endArrow=open;dashed=1;endSize=8;exitX=1;exitY=0.82;exitDx=0;exitDy=0;exitPerimeter=0;" edge="1" parent="1" source="_x4v-VnwTyk6EA4UEIuB-38">
          <mxGeometry relative="1" as="geometry">
            <mxPoint x="741" y="970" as="targetPoint" />
            <mxPoint x="390" y="970" as="sourcePoint" />
            <Array as="points" />
          </mxGeometry>
        </mxCell>
        <mxCell id="_x4v-VnwTyk6EA4UEIuB-45" value="&lt;div style=&quot;text-align: left&quot;&gt;若提交单为非状态，则查询支付结果（渠道统一调用接口）&lt;/div&gt;" style="html=1;verticalAlign=bottom;endArrow=block;" edge="1" parent="1" source="_x4v-VnwTyk6EA4UEIuB-63" target="_x4v-VnwTyk6EA4UEIuB-19">
          <mxGeometry relative="1" as="geometry">
            <mxPoint x="450" y="1210" as="sourcePoint" />
            <Array as="points">
              <mxPoint x="560" y="1220" />
            </Array>
          </mxGeometry>
        </mxCell>
        <mxCell id="_x4v-VnwTyk6EA4UEIuB-46" value="返回支付结果" style="html=1;verticalAlign=bottom;endArrow=open;dashed=1;endSize=8;exitX=0;exitY=0.95;" edge="1" parent="1" source="_x4v-VnwTyk6EA4UEIuB-19" target="_x4v-VnwTyk6EA4UEIuB-14">
          <mxGeometry relative="1" as="geometry">
            <mxPoint x="670" y="1256" as="targetPoint" />
          </mxGeometry>
        </mxCell>
        <mxCell id="_x4v-VnwTyk6EA4UEIuB-47" value="查询支付结果接口" style="html=1;verticalAlign=bottom;endArrow=block;entryX=0;entryY=0;" edge="1" parent="1" source="_x4v-VnwTyk6EA4UEIuB-19" target="_x4v-VnwTyk6EA4UEIuB-25">
          <mxGeometry relative="1" as="geometry">
            <mxPoint x="939" y="1180" as="sourcePoint" />
          </mxGeometry>
        </mxCell>
        <mxCell id="_x4v-VnwTyk6EA4UEIuB-48" value="返回支付结果" style="html=1;verticalAlign=bottom;endArrow=open;dashed=1;endSize=8;entryX=1.1;entryY=0.65;entryDx=0;entryDy=0;entryPerimeter=0;" edge="1" parent="1">
          <mxGeometry relative="1" as="geometry">
            <mxPoint x="751" y="1248" as="targetPoint" />
            <mxPoint x="1009" y="1248" as="sourcePoint" />
          </mxGeometry>
        </mxCell>
        <mxCell id="_x4v-VnwTyk6EA4UEIuB-49" value="" style="html=1;points=[];perimeter=orthogonalPerimeter;" vertex="1" parent="1">
          <mxGeometry x="375" y="1323" width="10" height="40" as="geometry" />
        </mxCell>
        <mxCell id="_x4v-VnwTyk6EA4UEIuB-50" value="根据本次查询结果&lt;br&gt;1.处理中，更新有效信息，不更新状态&lt;br&gt;2.终态，更新有效信息，更新状态" style="edgeStyle=orthogonalEdgeStyle;html=1;align=left;spacingLeft=2;endArrow=block;rounded=0;entryX=1;entryY=0;" edge="1" parent="1" target="_x4v-VnwTyk6EA4UEIuB-49">
          <mxGeometry relative="1" as="geometry">
            <mxPoint x="385" y="1280" as="sourcePoint" />
            <Array as="points">
              <mxPoint x="387" y="1280" />
              <mxPoint x="410" y="1280" />
              <mxPoint x="410" y="1308" />
            </Array>
          </mxGeometry>
        </mxCell>
        <mxCell id="_x4v-VnwTyk6EA4UEIuB-51" value="" style="html=1;points=[];perimeter=orthogonalPerimeter;" vertex="1" parent="1">
          <mxGeometry x="375" y="1393" width="10" height="50" as="geometry" />
        </mxCell>
        <mxCell id="_x4v-VnwTyk6EA4UEIuB-52" value="1.新增支付结果单（订单为终态时）&lt;br&gt;2.更新支付提交单和支付请求单（事务）&lt;br&gt;3.根据支付结果（非终态）更新订单补偿单状态为无需补偿" style="edgeStyle=orthogonalEdgeStyle;html=1;align=left;spacingLeft=2;endArrow=block;rounded=0;entryX=1;entryY=0;exitX=1;exitY=0.875;exitDx=0;exitDy=0;exitPerimeter=0;" edge="1" parent="1" source="_x4v-VnwTyk6EA4UEIuB-49" target="_x4v-VnwTyk6EA4UEIuB-51">
          <mxGeometry relative="1" as="geometry">
            <mxPoint x="380" y="1353" as="sourcePoint" />
            <Array as="points">
              <mxPoint x="410" y="1358" />
              <mxPoint x="410" y="1393" />
            </Array>
          </mxGeometry>
        </mxCell>
        <mxCell id="_x4v-VnwTyk6EA4UEIuB-53" value="支付结果回调通知" style="html=1;verticalAlign=bottom;endArrow=open;endSize=8;exitX=-0.1;exitY=0.8;exitDx=0;exitDy=0;exitPerimeter=0;" edge="1" parent="1">
          <mxGeometry relative="1" as="geometry">
            <mxPoint x="375" y="1430" as="sourcePoint" />
            <mxPoint x="79.5" y="1430" as="targetPoint" />
          </mxGeometry>
        </mxCell>
        <mxCell id="_x4v-VnwTyk6EA4UEIuB-54" value="补偿查询" style="shape=umlActor;verticalLabelPosition=bottom;verticalAlign=top;html=1;strokeWidth=1;fillColor=#f8cecc;strokeColor=#b85450;" vertex="1" parent="1">
          <mxGeometry x="64" y="1497" width="30" height="60" as="geometry" />
        </mxCell>
        <mxCell id="_x4v-VnwTyk6EA4UEIuB-55" value="发起支付结果查询（支付查询接口）" style="html=1;verticalAlign=bottom;endArrow=block;entryX=0;entryY=0;exitX=0.5;exitY=0.5;exitDx=0;exitDy=0;exitPerimeter=0;" edge="1" parent="1" source="_x4v-VnwTyk6EA4UEIuB-54" target="_x4v-VnwTyk6EA4UEIuB-15">
          <mxGeometry relative="1" as="geometry">
            <mxPoint x="305" y="1530" as="sourcePoint" />
          </mxGeometry>
        </mxCell>
        <mxCell id="_x4v-VnwTyk6EA4UEIuB-56" value="返回支付结果" style="html=1;verticalAlign=bottom;endArrow=open;dashed=1;endSize=8;exitX=0;exitY=0.95;" edge="1" parent="1" source="_x4v-VnwTyk6EA4UEIuB-15">
          <mxGeometry relative="1" as="geometry">
            <mxPoint x="78.5" y="1602" as="targetPoint" />
          </mxGeometry>
        </mxCell>
        <mxCell id="_x4v-VnwTyk6EA4UEIuB-57" value="1.必填参数校验（支付单号）&#xa;2.查询支付请求单，获取支付结果" style="text;align=left;fontStyle=0;verticalAlign=middle;spacingLeft=3;spacingRight=3;strokeColor=none;rotatable=0;points=[[0,0.5],[1,0.5]];portConstraint=eastwest;" vertex="1" parent="1">
          <mxGeometry x="385" y="1530" width="305" height="70" as="geometry" />
        </mxCell>
        <mxCell id="_x4v-VnwTyk6EA4UEIuB-58" value="&lt;span style=&quot;color: rgb(50 , 50 , 50) ; background-color: rgba(255 , 255 , 255 , 0.01)&quot;&gt;&lt;font style=&quot;font-size: 12px&quot;&gt;返回数据分类：&lt;/font&gt;&lt;/span&gt;&lt;div style=&quot;resize: none ; outline: 0px ; color: rgb(50 , 50 , 50)&quot;&gt;&lt;font style=&quot;font-size: 12px&quot;&gt;1. 直接下单成功或失败或支付中（如卡支付等）&lt;/font&gt;&lt;/div&gt;&lt;div style=&quot;resize: none ; outline: 0px ; color: rgb(50 , 50 , 50)&quot;&gt;&lt;font style=&quot;font-size: 12px&quot;&gt;2. 返回展示数据（如条形码、二维码等）&lt;/font&gt;&lt;/div&gt;&lt;div style=&quot;resize: none ; outline: 0px ; color: rgb(50 , 50 , 50)&quot;&gt;&lt;font style=&quot;font-size: 12px&quot;&gt;3. 返回URL（如3DS、跳转支付URL等）&lt;/font&gt;&lt;/div&gt;&lt;div style=&quot;resize: none ; outline: 0px ; color: rgb(50 , 50 , 50)&quot;&gt;&lt;font style=&quot;font-size: 12px&quot;&gt;&lt;span style=&quot;background-color: rgba(255 , 255 , 255 , 0.01)&quot;&gt;&lt;font style=&quot;font-size: 12px&quot;&gt;4. 返回用户交互（如用户输入OTP等）&lt;/font&gt;&lt;/span&gt;&lt;br&gt;&lt;/font&gt;&lt;/div&gt;" style="shape=note;whiteSpace=wrap;html=1;backgroundOutline=1;darkOpacity=0.05;strokeWidth=1;align=left;" vertex="1" parent="1">
          <mxGeometry x="90" y="586" width="260" height="90" as="geometry" />
        </mxCell>
        <mxCell id="_x4v-VnwTyk6EA4UEIuB-59" value="&lt;span style=&quot;font-family: &amp;#34;helvetica&amp;#34;&quot;&gt;新增支付请求单（&lt;/span&gt;&lt;span style=&quot;font-size: 12px&quot;&gt;tb_funding_channel_request_order&lt;/span&gt;&lt;span style=&quot;font-family: &amp;#34;helvetica&amp;#34;&quot;&gt;）&lt;br&gt;，请求类型为入款&lt;br&gt;1.基于上游支付单号（唯一索引）进行&lt;b&gt;幂等&lt;/b&gt;校验&lt;br&gt;&lt;/span&gt;" style="edgeStyle=orthogonalEdgeStyle;html=1;align=left;spacingLeft=2;endArrow=block;rounded=0;exitX=1;exitY=0.956;exitDx=0;exitDy=0;exitPerimeter=0;entryX=1;entryY=0.475;entryDx=0;entryDy=0;entryPerimeter=0;" edge="1" parent="1">
          <mxGeometry relative="1" as="geometry">
            <mxPoint x="385" y="210.00000000000003" as="sourcePoint" />
            <Array as="points">
              <mxPoint x="385" y="213.52" />
              <mxPoint x="410" y="213.52" />
              <mxPoint x="410" y="293.52" />
            </Array>
            <mxPoint x="385" y="293.52" as="targetPoint" />
          </mxGeometry>
        </mxCell>
        <mxCell id="_x4v-VnwTyk6EA4UEIuB-65" value="请求单为终态，则支付结果回调通知" style="html=1;verticalAlign=bottom;endArrow=open;endSize=8;exitX=-0.1;exitY=0.8;exitDx=0;exitDy=0;exitPerimeter=0;" edge="1" parent="1">
          <mxGeometry relative="1" as="geometry">
            <mxPoint x="375" y="1210" as="sourcePoint" />
            <mxPoint x="79.5" y="1210" as="targetPoint" />
          </mxGeometry>
        </mxCell>
      </root>
    </mxGraphModel>
  </diagram>
</mxfile>
